# xmcd
#
# Track frame offsets: 
#        150
#        14327
#        25896
#        38607
#        53209
#        66281
#        80672
#        94706
#        108573
#        121679
#        134683
#        147738
#        161000
#        173477
#        187646
#        200291
#        213457
#        228881
#        244227
#        257331
#
# Disc length: 3714 seconds
#
# Revision: 0
# Processed by: cddbd v1.5.2PL0 Copyright (c) Steve Scherf et al.
# Submitted via: ExactAudioCopy v0.99pb3
#
DISCID=0e0e8014
DTITLE=The ways of the blues N°3 - Ladies Of The Blues
DYEAR=2004
DGENRE=Blues
TTITLE0=St Louis Blues , Bessie Smith and Louis Armstrong
TTITLE1=Bad Whiskey Blues , Merline Johnson
TTITLE2=Blues Everywhere , Menphis Minnie
TTITLE3=When I Been Drinking , Rosetta Howard
TTITLE4=Separation Blues , Merline Johnson
TTITLE5=Dope Head Blues , Victoria Spivey
TTITLE6=Experience Blues , Ruth Willis and Blin Willie McTell
TTITLE7=Butcher Shop Blues , Bernice Edwards
TTITLE8=Groceries On The Shelf , Lucille Bogan
TTITLE9=The Gambling Man , Sister O.M. Terrell
TTITLE10=Drinking Blues , Lucille Bogan
TTITLE11=Alligator Blues , Helen Humes
TTITLE12=He's Just My Size , Lillie Mae Kirkman
TTITLE13=When The Levee Breaks , Memphis Minnie and Kansas Joe
TTITLE14=Ih It Don't Fit (Don't Force It) - Barrel House Annie
TTITLE15=God's Got A Crown , Arizona Dranes
TTITLE16="Taint" Nobody's Businnes If I Do , Bessie Smith
TTITLE17=Crazy Blues , Mamies Smith and Her Jazz Hounds
TTITLE18=Crazy 'Bout You Baby , Christine Perfect
TTITLE19=Nothing Takes The Place Of You , Koko Taylor
EXTD=
EXTT0=
EXTT1=
EXTT2=
EXTT3=
EXTT4=
EXTT5=
EXTT6=
EXTT7=
EXTT8=
EXTT9=
EXTT10=
EXTT11=
EXTT12=
EXTT13=
EXTT14=
EXTT15=
EXTT16=
EXTT17=
EXTT18=
EXTT19=
PLAYORDER=
